<?xml version="1.0" standalone="no"?>
<!DOCTYPE svg PUBLIC "-//W3C//DTD SVG 20010904//EN"
 "http://www.w3.org/TR/2001/REC-SVG-20010904/DTD/svg10.dtd">
<svg version="1.0" xmlns="http://www.w3.org/2000/svg"
 width="512.000000pt" height="512.000000pt" viewBox="0 0 512.000000 512.000000"
 preserveAspectRatio="xMidYMid meet">
<metadata>
Created by potrace 1.11, written by Peter Selinger 2001-2013
</metadata>
<g transform="translate(0.000000,512.000000) scale(0.100000,-0.100000)"
fill="#000000" stroke="none">
<path d="M4632 3132 c-9 -9 -28 -63 -41 -119 l-24 -101 -49 53 c-58 63 -161
121 -199 112 -21 -5 -38 -33 -96 -154 -39 -81 -78 -164 -86 -183 l-14 -35 -1
57 c-1 58 -8 70 -76 141 -39 41 -177 84 -210 65 -19 -10 -52 -73 -112 -208
l-43 -95 6 97 c6 112 -3 136 -70 209 -28 31 -60 52 -97 66 -76 29 -145 39
-155 22 -5 -7 -8 -55 -7 -107 l1 -95 -32 39 c-87 105 -173 157 -299 179 -81
15 -172 -7 -224 -54 -43 -39 -111 -126 -135 -173 l-20 -39 -38 58 c-55 84
-116 149 -169 181 -69 40 -183 41 -307 3 -92 -28 -238 -92 -248 -108 -13 -21
-24 -109 -42 -353 -12 -159 -24 -264 -37 -331 -12 -67 4 -111 62 -169 40 -40
143 -76 185 -66 23 6 30 30 51 163 12 75 19 87 60 102 166 59 299 121 342 162
12 10 24 19 28 19 4 0 13 8 20 17 17 25 21 18 28 -57 12 -117 56 -211 136
-292 65 -64 105 -85 205 -103 138 -24 214 -2 298 87 53 57 120 185 138 265 14
61 22 61 25 0 1 -23 5 -62 8 -87 17 -117 23 -133 74 -197 27 -35 45 -46 99
-63 71 -22 132 -28 152 -15 7 4 39 62 71 129 43 89 59 114 59 93 1 -40 37
-110 78 -151 38 -37 128 -73 196 -77 33 -3 77 15 77 30 0 5 20 53 46 107 25
55 49 108 54 119 5 11 54 114 109 229 56 114 101 212 101 217 0 4 4 10 9 13 5
4 7 -2 5 -11 -6 -29 -33 -175 -39 -213 -14 -80 -13 -106 3 -130 35 -53 42 -70
27 -70 -24 0 -61 -21 -74 -42 -36 -57 -15 -126 61 -205 43 -44 73 -57 126 -55
113 5 156 114 78 196 l-33 35 33 -5 c31 -5 35 -2 48 28 11 27 72 236 80 273 1
6 30 95 65 198 40 119 61 197 57 211 -3 13 -32 51 -64 84 -49 49 -73 65 -140
91 -95 36 -97 36 -120 13z m-1556 -429 c-11 -147 -55 -290 -116 -378 -42 -61
-57 -59 -54 9 4 94 24 178 65 272 18 44 99 174 107 174 2 0 1 -35 -2 -77z
m-764 14 c-35 -36 -102 -85 -102 -75 0 2 6 23 14 47 10 37 19 47 47 57 19 7
45 13 59 13 23 1 22 -1 -18 -42z"/>
<path d="M336 3067 c-9 -12 -22 -65 -31 -117 -9 -52 -18 -106 -21 -120 -6 -31
-10 -58 -24 -158 -6 -43 -13 -96 -16 -117 -3 -22 -7 -58 -9 -80 -2 -22 -6 -65
-10 -95 -15 -144 -15 -164 5 -205 32 -66 83 -112 142 -129 83 -24 102 -27 115
-18 9 6 44 164 46 210 1 24 15 11 87 -73 77 -91 124 -126 167 -127 44 0 94 11
125 30 35 21 31 37 -32 117 -25 33 -67 90 -93 126 l-47 66 128 130 c132 135
174 181 201 223 8 14 18 27 21 30 13 12 30 63 30 88 0 60 -129 224 -188 239
-28 7 -31 5 -226 -216 l-39 -45 6 31 c5 25 0 38 -26 69 -73 86 -119 116 -226
148 -69 20 -68 20 -85 -7z"/>
<path d="M1345 3078 c-31 -18 -39 -32 -124 -203 -125 -252 -270 -590 -276
-645 -3 -31 24 -86 61 -124 45 -44 127 -82 170 -77 6 0 28 37 48 81 21 44 46
84 55 89 16 8 49 15 126 26 22 4 50 8 62 10 19 3 23 -2 29 -33 3 -20 14 -49
25 -64 10 -15 19 -30 19 -34 0 -11 53 -55 80 -65 38 -16 127 -19 145 -5 15 11
18 45 20 297 4 286 11 494 20 537 6 35 -8 63 -62 119 -49 52 -68 61 -193 88
-75 16 -181 18 -205 3z m125 -518 c0 -33 -3 -40 -20 -40 -11 0 -20 2 -20 5 0
7 33 75 37 75 2 0 3 -18 3 -40z"/>
</g>
</svg>
